PathFileType	4	(X/Y/Z) abd_0kg_3.trc																										
DataRate	CameraRate	NumFrames	NumMarkers	Units	OrigDataRate	OrigDataStartFrame	OrigNumFrames																					
100	100	29	9	mm	100	492	787																					
Frame#	Time	gu			centelbow			EpL			centpxt8			centijc7			ij			ts			aa			ai		
		X1	Y1	Z1	X2	Y2	Z2	X3	Y3	Z3	X4	Y4	Z4	X5	Y5	Z5	X6	Y6	Z6	X7	Y7	Z7	X8	Y8	Z8	X9	Y9	Z9  
491	4.91	-118.677	60.915	111.948	-153.18	163.736	333.808	-171.887	183.973	317.075	-46.816	-153.158	-8.669	-46.816	31.938	-8.669	0	0	0	-122.096	-3.05	20.693	-160.381	68.601	108.015	-117.471	-86.076	97.964
492	4.92	-118.37	60.577	112.523	-152.768	160.183	335.861	-171.613	180.559	319.455	-46.816	-153.158	-8.669	-46.816	31.938	-8.669	0	0	0	-121.568	-2.716	20.586	-159.747	68.204	108.549	-116.531	-86.3	97.228
493	4.93	-118.109	60.592	112.996	-152.55	156.977	337.736	-171.535	177.474	321.648	-46.816	-153.158	-8.669	-46.816	31.938	-8.669	0	0	0	-121.127	-2.479	20.437	-159.205	67.737	109.006	-115.748	-86.604	96.461
494	4.94	-118.086	60.953	113.18	-152.628	154.052	339.285	-171.758	174.663	323.515	-46.816	-153.158	-8.669	-46.816	31.938	-8.669	0	0	0	-120.965	-2.028	19.949	-158.944	67.492	109.108	-115.272	-86.686	95.356
495	4.95	-118.274	61.501	113.179	-152.915	151.268	340.613	-172.18	171.994	325.162	-46.816	-153.158	-8.669	-46.816	31.938	-8.669	0	0	0	-121.081	-1.297	19.354	-158.998	67.536	109.071	-115.114	-86.473	94.154
496	4.96	-118.59	62.018	113.164	-153.33	148.433	341.878	-172.711	169.284	326.744	-46.816	-153.158	-8.669	-46.816	31.938	-8.669	0	0	0	-121.285	-0.518	19.014	-159.197	67.649	109.24	-115.097	-86.188	93.23
497	4.97	-118.868	62.284	113.348	-153.768	145.29	343.297	-173.235	166.285	328.475	-46.816	-153.158	-8.669	-46.816	31.938	-8.669	0	0	0	-121.398	0.108	18.899	-159.33	67.644	109.59	-115.019	-86.024	92.563
498	4.98	-118.97	62.2	113.894	-154.19	141.69	345.033	-173.712	162.847	330.516	-46.816	-153.158	-8.669	-46.816	31.938	-8.669	0	0	0	-121.383	0.54	18.804	-159.312	67.497	109.925	-114.83	-86.014	91.955
499	4.99	-119.031	61.833	114.704	-154.798	137.698	346.975	-174.35	159.025	332.752	-46.816	-153.158	-8.669	-46.816	31.938	-8.669	0	0	0	-121.327	0.799	18.687	-159.222	67.232	110.205	-114.635	-86.144	91.362
500	5	-119.174	61.27	115.587	-155.665	133.436	348.921	-175.239	154.932	334.986	-46.816	-153.158	-8.669	-46.816	31.938	-8.669	0	0	0	-121.272	0.968	18.573	-159.125	66.922	110.453	-114.476	-86.335	90.806
501	5.01	-119.268	60.679	116.384	-156.503	129.117	350.722	-176.104	150.773	337.075	-46.816	-153.158	-8.669	-46.816	31.938	-8.669	0	0	0	-121.185	1.151	18.459	-159.039	66.691	110.635	-114.304	-86.453	90.318
502	5.02	-119.316	60.454	116.863	-157.181	125.121	352.169	-176.834	146.918	338.825	-46.816	-153.158	-8.669	-46.816	31.938	-8.669	0	0	0	-121.147	1.328	18.412	-159.099	66.554	110.77	-114.217	-86.488	90.007
503	5.03	-119.526	60.695	117.026	-157.922	121.428	353.292	-177.648	143.356	340.276	-46.816	-153.158	-8.669	-46.816	31.938	-8.669	0	0	0	-121.255	1.489	18.419	-159.398	66.48	110.864	-114.339	-86.473	89.837
504	5.04	-119.88	60.782	117.403	-158.813	117.253	354.637	-178.598	139.337	341.976	-46.816	-153.158	-8.669	-46.816	31.938	-8.669	0	0	0	-121.422	1.79	18.237	-159.762	66.535	110.773	-114.593	-86.345	89.45
505	5.05	-120.182	60.151	118.475	-159.723	112.009	356.659	-179.527	134.29	344.38	-46.816	-153.158	-8.669	-46.816	31.938	-8.669	0	0	0	-121.527	2.247	17.811	-159.999	66.66	110.524	-114.905	-86.17	88.693
506	5.06	-120.48	59.018	119.896	-160.613	106.179	358.956	-180.429	128.662	347.069	-46.816	-153.158	-8.669	-46.816	31.938	-8.669	0	0	0	-121.495	2.623	17.518	-160.071	66.626	110.471	-115.227	-86.178	87.951
507	5.07	-120.96	58.031	120.813	-161.466	100.77	360.64	-181.348	123.393	349.139	-46.816	-153.158	-8.669	-46.816	31.938	-8.669	0	0	0	-121.293	2.769	17.625	-160.034	66.346	110.802	-115.392	-86.416	87.603
508	5.08	-121.606	57.585	120.96	-162.175	96.252	361.467	-182.214	118.926	350.341	-46.816	-153.158	-8.669	-46.816	31.938	-8.669	0	0	0	-121.06	2.707	17.977	-160.053	65.883	111.32	-115.346	-86.777	87.587
509	5.09	-122.229	57.546	120.914	-162.743	92.24	362.034	-183	114.898	351.281	-46.816	-153.158	-8.669	-46.816	31.938	-8.669	0	0	0	-120.998	2.584	18.28	-160.282	65.368	111.766	-115.237	-87.124	87.597
510	5.1	-122.677	57.469	121.235	-163.257	88.032	362.903	-183.74	110.661	352.521	-46.816	-153.158	-8.669	-46.816	31.938	-8.669	0	0	0	-121.003	2.751	18.309	-160.553	65.098	111.976	-115.043	-87.179	87.322
511	5.11	-122.881	57.034	121.997	-163.677	83.264	364.138	-184.359	105.881	354.131	-46.816	-153.158	-8.669	-46.816	31.938	-8.669	0	0	0	-120.81	3.335	18.083	-160.569	65.15	112.014	-114.629	-86.888	86.692
512	5.12	-122.916	56.203	123.05	-163.956	78.02	365.586	-184.814	100.64	355.956	-46.816	-153.158	-8.669	-46.816	31.938	-8.669	0	0	0	-120.455	3.835	17.979	-160.392	65.014	112.249	-114.167	-86.789	86.048
513	5.13	-122.972	55.297	124.096	-164.177	72.805	366.953	-185.208	95.419	357.694	-46.816	-153.158	-8.669	-46.816	31.938	-8.669	0	0	0	-120.122	3.806	18.258	-160.27	64.293	112.884	-113.879	-87.286	85.703
514	5.14	-123.13	54.966	124.741	-164.327	68.458	367.856	-185.552	91.033	358.951	-46.816	-153.158	-8.669	-46.816	31.938	-8.669	0	0	0	-119.807	3.538	18.638	-160.232	63.361	113.569	-113.635	-87.992	85.495
515	5.15	-123.307	55.45	124.948	-164.175	65.278	368.294	-185.627	87.771	359.731	-46.816	-153.158	-8.669	-46.816	31.938	-8.669	0	0	0	-119.516	3.466	18.765	-160.22	62.698	113.946	-113.24	-88.4	85.149
516	5.16	-123.399	55.905	125.303	-163.393	62.227	368.911	-185.09	84.623	360.72	-46.816	-153.158	-8.669	-46.816	31.938	-8.669	0	0	0	-119.36	3.522	18.783	-160.196	62.174	114.267	-112.626	-88.603	84.762
517	5.17	-123.279	55.298	126.352	-161.73	57.963	370.276	-183.676	80.275	362.53	-46.816	-153.158	-8.669	-46.816	31.938	-8.669	0	0	0	-119.31	3.566	18.983	-160.022	61.534	114.937	-111.686	-88.815	84.506
518	5.18	-122.843	53.899	127.646	-159.36	52.624	371.878	-181.549	74.865	364.638	-46.816	-153.158	-8.669	-46.816	31.938	-8.669	0	0	0	-119.159	3.934	19.165	-159.561	61.076	115.744	-110.376	-88.749	84.113
519	5.19	-122.204	52.989	128.208	-156.888	47.615	372.651	-179.315	69.778	365.922	-46.816	-153.158	-8.669	-46.816	31.938	-8.669	0	0	0	-118.744	4.958	18.951	-158.824	61.208	116.185	-108.869	-88.078	83.236
